<?xml version="1.0" encoding="UTF-8" standalone="no"?>
<!-- Created with Inkscape (http://www.inkscape.org/) -->

<svg
   xmlns:dc="http://purl.org/dc/elements/1.1/"
   xmlns:cc="http://creativecommons.org/ns#"
   xmlns:rdf="http://www.w3.org/1999/02/22-rdf-syntax-ns#"
   xmlns:svg="http://www.w3.org/2000/svg"
   xmlns="http://www.w3.org/2000/svg"
   xmlns:xlink="http://www.w3.org/1999/xlink"
   xmlns:sodipodi="http://sodipodi.sourceforge.net/DTD/sodipodi-0.dtd"
   xmlns:inkscape="http://www.inkscape.org/namespaces/inkscape"
   width="1200"
   height="800"
   id="svg2985"
   version="1.1"
   inkscape:version="0.48.4 r9939"
   sodipodi:docname="life-3.svg"
   inkscape:export-filename="/var/www/iovar/exp/foreverretrorace/graphics.png"
   inkscape:export-xdpi="360"
   inkscape:export-ydpi="360">
  <defs
     id="defs2987">
    <pattern
       inkscape:collect="always"
       xlink:href="#Checkerboard-4"
       id="pattern5584"
       patternTransform="matrix(10,0,0,10,-553.95891,-500.30039)" />
    <pattern
       inkscape:collect="always"
       xlink:href="#pattern5546"
       id="pattern5560"
       patternTransform="matrix(5.0211045,0,0,6.3104708,136.85894,40.380795)" />
    <pattern
       inkscape:collect="always"
       xlink:href="#pattern5550"
       id="pattern5558"
       patternTransform="matrix(5.0211045,0,0,6.3104708,307.99211,-106.7391)" />
    <pattern
       inkscape:collect="always"
       xlink:href="#pattern5500"
       id="pattern5550"
       patternTransform="matrix(7.7989077,0,0,9.8571429,300.74441,-268.06269)" />
    <pattern
       inkscape:collect="always"
       xlink:href="#pattern5500-8"
       id="pattern5546"
       patternTransform="matrix(7.7989077,0,0,9.8571429,111.98069,-93.822067)" />
    <pattern
       inkscape:collect="always"
       xlink:href="#Checkerboard"
       id="pattern5500"
       patternTransform="matrix(7.7692307,0,0,9.8571429,84.552795,-36.279006)" />
    <pattern
       inkscape:stockid="Checkerboard"
       id="Checkerboard"
       patternTransform="translate(0,0) scale(10,10)"
       height="2"
       width="2"
       patternUnits="userSpaceOnUse"
       inkscape:collect="always">
      <rect
         id="rect4821"
         height="1"
         width="1"
         y="0"
         x="0"
         style="fill:black;stroke:none" />
      <rect
         id="rect4823"
         height="1"
         width="1"
         y="1"
         x="1"
         style="fill:black;stroke:none" />
    </pattern>
    <pattern
       inkscape:collect="always"
       xlink:href="#Checkerboard-4"
       id="pattern5500-8"
       patternTransform="matrix(7.7692307,0,0,9.8571429,84.552795,-36.279006)" />
    <pattern
       inkscape:stockid="Checkerboard"
       id="Checkerboard-4"
       patternTransform="translate(0,0) scale(10,10)"
       height="2"
       width="2"
       patternUnits="userSpaceOnUse"
       inkscape:collect="always">
      <rect
         id="rect4821-9"
         height="1"
         width="1"
         y="0"
         x="0"
         style="fill:black;stroke:none" />
      <rect
         id="rect4823-7"
         height="1"
         width="1"
         y="1"
         x="1"
         style="fill:black;stroke:none" />
    </pattern>
    <pattern
       patternTransform="matrix(-8.3178829,-7.0710678,-5.8242527,7.0710678,564.66238,286.43123)"
       id="pattern5621"
       xlink:href="#pattern5603-4"
       inkscape:collect="always" />
    <pattern
       inkscape:collect="always"
       xlink:href="#pattern5598-7"
       id="pattern5603-4"
       patternTransform="matrix(-10,0,0,10,469.8125,0)" />
    <pattern
       inkscape:collect="always"
       xlink:href="#Checkerboard-4-1"
       id="pattern5598-7"
       patternTransform="matrix(10,0,0,10,0,32)" />
    <pattern
       inkscape:stockid="Checkerboard"
       id="Checkerboard-4-1"
       patternTransform="translate(0,0) scale(10,10)"
       height="2"
       width="2"
       patternUnits="userSpaceOnUse"
       inkscape:collect="always">
      <rect
         id="rect4821-9-5"
         height="1"
         width="1"
         y="0"
         x="0"
         style="fill:black;stroke:none" />
      <rect
         id="rect4823-7-5"
         height="1"
         width="1"
         y="1"
         x="1"
         style="fill:black;stroke:none" />
    </pattern>
    <pattern
       patternTransform="matrix(8.3178829,-7.0710678,5.8242527,7.0710678,-341.21349,286.43123)"
       id="pattern5659"
       xlink:href="#pattern5621-1"
       inkscape:collect="always" />
    <pattern
       patternTransform="matrix(-8.3178829,-7.0710678,-5.8242527,7.0710678,564.66238,286.43123)"
       id="pattern5621-1"
       xlink:href="#pattern5603-4-7"
       inkscape:collect="always" />
    <pattern
       inkscape:collect="always"
       xlink:href="#pattern5598-7-3"
       id="pattern5603-4-7"
       patternTransform="matrix(-10,0,0,10,469.8125,0)" />
    <pattern
       inkscape:collect="always"
       xlink:href="#Checkerboard-4-1-1"
       id="pattern5598-7-3"
       patternTransform="matrix(10,0,0,10,0,32)" />
    <pattern
       inkscape:stockid="Checkerboard"
       id="Checkerboard-4-1-1"
       patternTransform="translate(0,0) scale(10,10)"
       height="2"
       width="2"
       patternUnits="userSpaceOnUse"
       inkscape:collect="always">
      <rect
         id="rect4821-9-5-5"
         height="1"
         width="1"
         y="0"
         x="0"
         style="fill:black;stroke:none" />
      <rect
         id="rect4823-7-5-1"
         height="1"
         width="1"
         y="1"
         x="1"
         style="fill:black;stroke:none" />
    </pattern>
  </defs>
  <sodipodi:namedview
     id="base"
     pagecolor="#ffffff"
     bordercolor="#666666"
     borderopacity="1.0"
     inkscape:pageopacity="0"
     inkscape:pageshadow="2"
     inkscape:zoom="0.46401523"
     inkscape:cx="1174.6268"
     inkscape:cy="245.1849"
     inkscape:current-layer="layer1"
     inkscape:document-units="px"
     showgrid="false"
     inkscape:window-width="1600"
     inkscape:window-height="836"
     inkscape:window-x="-3"
     inkscape:window-y="-3"
     inkscape:window-maximized="1"
     showguides="false"
     inkscape:guide-bbox="true">
    <sodipodi:guide
       orientation="0,1"
       position="-49.105175,800.1255"
       id="guide3791" />
    <sodipodi:guide
       orientation="0,1"
       position="-63.547874,531.49131"
       id="guide3793" />
    <sodipodi:guide
       orientation="0,1"
       position="266.70927,170.34979"
       id="guide4015" />
    <sodipodi:guide
       orientation="0,1"
       position="528.25642,316.60971"
       id="guide4017" />
    <sodipodi:guide
       orientation="0,1"
       position="526.53571,435.33835"
       id="guide4019" />
  </sodipodi:namedview>
  <metadata
     id="metadata2990">
    <rdf:RDF>
      <cc:Work
         rdf:about="">
        <dc:format>image/svg+xml</dc:format>
        <dc:type
           rdf:resource="http://purl.org/dc/dcmitype/StillImage" />
        <dc:title></dc:title>
      </cc:Work>
    </rdf:RDF>
  </metadata>
  <g
     id="layer1"
     inkscape:label="Layer 1"
     inkscape:groupmode="layer"
     transform="translate(0,32)">
    <g
       transform="scale(1.2086034,0.82740126)"
       style="font-size:33.84089661px;font-style:italic;font-variant:normal;font-weight:normal;font-stretch:normal;line-height:125%;letter-spacing:0px;word-spacing:0px;opacity:0.7;fill:#000000;fill-opacity:1;stroke:none;font-family:Vigilance BRK;-inkscape-font-specification:Fatboy Slim BLTC BRK Italic"
       id="text4276">
      <path
         d="m 382.78466,155.35406 c -2.61063,1e-5 -5.22121,0.37709 -7.83175,1.13125 -2.55261,0.75418 -5.16319,1.59537 -7.83175,2.52356 -2.66863,0.92822 -5.33722,1.76941 -8.00579,2.52357 -2.66862,0.75417 -5.39522,1.13126 -8.17983,1.13125 -0.34809,1e-5 -0.92822,1e-5 -1.74039,0 -0.81219,1e-5 -1.71139,1e-5 -2.6976,0 -0.92822,-0.058 -1.82742,-0.087 -2.6976,-0.087 -0.81219,1e-5 -1.39232,1e-5 -1.74039,0 -1.62437,-1.16025 -2.6686,-2.69759 -3.1327,-4.61203 -0.46411,-1.97243 -0.49312,-4.00288 -0.087,-6.09136 0.4641,-2.3205 1.7984,-5.19214 4.00289,-8.61493 2.2625,-3.48075 4.98911,-7.13556 8.17983,-10.96445 3.24871,-3.82881 6.7875,-7.65766 10.61637,-11.48656 3.82883,-3.82881 7.59967,-7.25157 11.31253,-10.2683 3.71279,-3.07463 7.13555,-5.54017 10.2683,-7.39665 3.19066,-1.91436 5.74323,-2.87158 7.65771,-2.87164 1.74033,6e-5 3.10363,0.63821 4.08991,1.91442 1.04417,1.27635 1.39225,2.75568 1.04424,4.438 -0.11609,0.52217 -1.13132,1.5374 -3.04568,3.04568 -1.91449,1.45038 -4.32202,3.21977 -7.22262,5.30818 -2.84268,2.03051 -6.00439,4.32202 -9.48512,6.87454 -3.4228,2.4946 -6.72954,5.07617 -9.92022,7.74473 -3.13272,2.61062 -5.94635,5.2212 -8.44088,7.83175 -2.43657,2.61061 -4.14795,5.04715 -5.13415,7.30963 -0.17406,0.3481 -0.29008,0.92823 -0.34808,1.74039 -1e-5,0.75419 -0.029,1.56637 -0.087,2.43655 -0.058,0.8122 -0.11604,1.62438 -0.17404,2.43654 -1e-5,0.75419 -0.029,1.30531 -0.087,1.65337 0.46408,2e-5 1.18924,0.087 2.17548,0.26106 0.9862,0.11604 2.11745,0.23207 3.39376,0.34808 1.27626,0.058 2.55254,0.087 3.82886,0.087 1.33427,-0.058 2.58154,-0.26105 3.74183,-0.60914 1.16023,-0.34806 2.14645,-0.87018 2.95866,-1.56635 0.87016,-0.75415 1.45029,-1.79838 1.74039,-3.1327 0.058,-0.23203 0.11599,-0.58011 0.17404,-1.04423 0.058,-0.46409 0.087,-0.72514 0.087,-0.78318 -4e-5,-0.116 -0.058,-0.34805 -0.17404,-0.69615 -0.11606,-0.34806 -0.26109,-0.69614 -0.4351,-1.04424 -0.11606,-0.40606 -0.23208,-0.78315 -0.34807,-1.13125 -0.058,-0.34805 -0.0871,-0.5801 -0.087,-0.69615 0.40605,-1.97242 1.74035,-3.74181 4.00289,-5.30819 2.32048,-1.56632 5.07609,-2.92962 8.26685,-4.08992 3.24868,-1.21823 6.70044,-2.26246 10.35531,-3.1327 3.65476,-0.87015 7.04851,-1.56631 10.18128,-2.08846 3.19064,-0.52208 5.85923,-0.89916 8.00579,-1.13125 2.1464,-0.29003 3.30666,-0.43506 3.48078,-0.4351 0.69607,4e-5 1.39223,0.029 2.08846,0.087 0.69608,4e-5 1.33422,0.11606 1.91443,0.34808 0.63806,0.17407 1.13117,0.52215 1.47933,1.04423 0.34799,0.52215 0.58005,1.27632 0.69616,2.2625 -9e-5,0.0581 -0.11611,0.23209 -0.34808,0.52212 -0.17412,0.2901 -0.40618,0.63818 -0.69616,1.04423 -0.23213,0.34812 -0.49319,0.7252 -0.78317,1.13126 -0.29015,0.34811 -0.5222,0.63817 -0.69616,0.87019 -0.17412,0.17407 -0.5512,0.49315 -1.13125,0.95722 -0.5222,0.40612 -0.84127,0.66718 -0.95721,0.78317 -0.69624,0.11606 -1.82749,0.34811 -3.39376,0.69616 -1.56643,0.3481 -3.2488,0.72519 -5.04713,1.13125 -1.79847,0.34811 -3.48085,0.69618 -5.04713,1.04423 -1.56641,0.2901 -2.66866,0.52215 -3.30674,0.69616 -0.34814,0.11605 -0.81224,0.26108 -1.39231,0.4351 -0.58019,0.17406 -1.16032,0.3481 -1.74039,0.52211 -0.58019,0.17407 -1.13131,0.34811 -1.65337,0.52212 -0.52217,0.17406 -0.81224,0.29009 -0.87019,0.34808 -0.0581,2e-5 -0.14509,0.11605 -0.26106,0.34807 -0.11608,0.23208 -0.2031,0.40612 -0.26106,0.52212 -6e-5,0.11605 -6e-5,0.29009 0,0.52212 0.058,0.17406 0.11597,0.29009 0.17404,0.34808 0.92815,1.97246 1.71132,3.68384 2.34953,5.13414 0.69609,1.45035 1.33423,2.72663 1.91442,3.82886 0.63808,1.10226 1.24722,2.08848 1.82741,2.95866 0.63808,0.87021 1.36324,1.71139 2.17549,2.52356 0.81211,0.75418 1.79833,1.53736 2.95866,2.34953 1.2182,0.81219 2.66852,1.74039 4.35097,2.78462 0.0579,0.17404 0.0289,0.60914 -0.087,1.30529 -0.1161,0.69616 -0.20312,1.13126 -0.26106,1.30529 -0.17411,0.98623 -0.6092,1.94344 -1.30529,2.87165 -0.63821,0.98622 -1.42139,1.85641 -2.34952,2.61058 -0.87027,0.75416 -1.85649,1.3633 -2.95866,1.82741 -1.0443,0.52211 -2.08853,0.78317 -3.1327,0.78317 -1.45039,0 -2.63965,-0.46411 -3.5678,-1.39231 -0.87025,-0.8702 -1.62442,-1.97244 -2.26251,-3.30674 -0.6382,-1.27628 -1.21833,-2.6976 -1.74039,-4.26395 -0.46415,-1.56635 -1.01528,-2.98766 -1.65337,-4.26395 -0.58018,-1.33429 -1.33435,-2.43654 -2.2625,-3.30674 -0.87025,-0.9282 -2.0015,-1.3923 -3.39376,-1.39231"
         style="font-size:87.01944733px;font-family:Fatboy Slim BLTC BRK;-inkscape-font-specification:Fatboy Slim BLTC BRK Italic"
         id="path4833" />
      <path
         d="m 442.32092,150.13289 c -3.24876,2e-5 -5.97537,0.31909 -8.17983,0.95721 -2.1465,0.58015 -4.00292,1.36332 -5.56924,2.34953 -1.50836,0.92822 -2.78464,1.94345 -3.82886,3.04568 -1.04425,1.04424 -2.08848,2.05947 -3.1327,3.04568 -0.98623,0.92822 -2.05947,1.71139 -3.21972,2.34953 -1.16027,0.58013 -2.58158,0.87019 -4.26395,0.87019 -0.34809,0 -0.81219,0.029 -1.39231,0.087 -0.52213,0 -1.07325,-0.029 -1.65337,-0.087 -0.58014,-0.11602 -1.07325,-0.29006 -1.47933,-0.52212 -0.4061,-0.29006 -0.60914,-0.75416 -0.60914,-1.39231 0.058,-0.23204 0.11602,-0.63813 0.17404,-1.21827 0.11602,-0.63813 0.23205,-1.27628 0.34808,-1.91443 0.11602,-0.63813 0.23205,-1.24727 0.34808,-1.82741 0.11602,-0.63813 0.20304,-1.07322 0.26105,-1.30529 0.40609,-2.14646 0.87019,-3.77082 1.39231,-4.87309 0.52212,-1.16024 1.13125,-2.17546 1.82741,-3.04568 0.69615,-0.87017 1.47933,-1.79838 2.34953,-2.78462 0.87018,-1.04421 1.8274,-2.49453 2.87164,-4.35097 0.46409,-0.81215 1.01521,-2.03043 1.65337,-3.65482 0.69614,-1.62433 1.47932,-3.42273 2.34952,-5.39521 0.87018,-1.9724 1.8274,-4.00285 2.87165,-6.09136 1.10222,-2.08842 2.29149,-3.97384 3.56779,-5.65626 1.27627,-1.68233 2.66858,-3.07464 4.17694,-4.17693 1.50831,-1.1022 3.13267,-1.65332 4.87309,-1.65337 1.91439,5e-5 3.48074,0.55117 4.69905,1.65337 1.21823,1.10229 2.23346,2.52361 3.04568,4.26395 0.87015,1.68242 1.62432,3.56784 2.2625,5.65626 0.6381,2.08851 1.27625,4.11896 1.91443,6.09136 0.69611,1.97248 1.50829,3.77088 2.43655,5.39521 0.92816,1.62439 2.08841,2.81366 3.48077,3.5678 0.29002,0.17406 0.84114,0.3191 1.65337,0.43509 0.81213,0.0581 1.65332,0.20308 2.52357,0.4351 0.92815,0.23208 1.79834,0.55115 2.61058,0.95722 0.81212,0.40611 1.27623,0.98624 1.39231,1.74038 -1.27634,0.58016 -2.32057,1.13128 -3.1327,1.65337 -0.81223,0.52214 -1.50839,1.10227 -2.08847,1.74039 -0.52216,0.58015 -0.92825,1.2473 -1.21827,2.00145 -0.29011,0.69617 -0.52217,1.50836 -0.69615,2.43654 -0.23211,1.16028 -0.23211,2.17551 0,3.04569 0.232,0.81219 0.52206,1.62437 0.87019,2.43654 0.40604,0.81219 0.72511,1.65338 0.95721,2.52356 0.232,0.81219 0.232,1.76941 0,2.87165 -0.34812,1.7984 -1.10229,2.98767 -2.2625,3.56779 -1.16031,0.58013 -2.58163,0.8702 -4.26395,0.8702 -1.27633,0 -2.26255,-0.37708 -2.95867,-1.13126 -0.63818,-0.81217 -1.10228,-1.8274 -1.39231,-3.04568 -0.2901,-1.21826 -0.52215,-2.49454 -0.69615,-3.82885 -0.11607,-1.3923 -0.34812,-2.69759 -0.69616,-3.91588 -0.2901,-1.21825 -0.7542,-2.20447 -1.39231,-2.95866 -0.58017,-0.81216 -1.50837,-1.21825 -2.78462,-1.21827 m -10.44233,-15.92456 c -0.23208,1.39234 -0.43513,2.5526 -0.60914,3.48078 -0.17406,0.92824 -0.14506,1.6824 0.087,2.2625 0.23203,0.52215 0.69613,0.89923 1.39231,1.13126 0.75414,0.23208 1.82738,0.3481 3.21972,0.34808 0.52209,2e-5 1.10222,2e-5 1.74039,0 0.63811,2e-5 1.24724,-0.087 1.82741,-0.26106 0.58009,-0.17402 1.10221,-0.43507 1.56635,-0.78318 0.46407,-0.40606 0.75413,-0.98619 0.87019,-1.74039 0.058,-0.11599 0.087,-0.29003 0.087,-0.52211 -3e-5,-0.23203 -0.029,-0.34805 -0.087,-0.34808 -0.11606,-0.40606 -0.40612,-1.13122 -0.87019,-2.17549 -0.46414,-1.0442 -0.95725,-2.11744 -1.47933,-3.21972 -0.52215,-1.16022 -1.04427,-2.23346 -1.56635,-3.21972 -0.46414,-0.98618 -0.78321,-1.68233 -0.95722,-2.08846 -0.11605,4e-5 -0.29009,4e-5 -0.52211,0 -0.17407,-0.058 -0.2901,-0.087 -0.34808,-0.087 -0.98625,4e-5 -1.74042,0.2901 -2.26251,0.87019 -0.52214,0.52216 -0.92823,1.18931 -1.21827,2.00145 -0.23208,0.7542 -0.40612,1.53738 -0.52212,2.34952 -0.11605,0.81222 -0.23207,1.47937 -0.34807,2.00145"
         style="font-size:87.01944733px;font-family:Fatboy Slim BLTC BRK;-inkscape-font-specification:Fatboy Slim BLTC BRK Italic"
         id="path4835" />
      <path
         d="m 513.07452,141.25691 c -1.74044,1.04426 -3.53884,2.52358 -5.3952,4.43799 -1.79845,1.85643 -3.65487,3.82887 -5.56925,5.91732 -1.85645,2.08848 -3.71287,4.11893 -5.56924,6.09136 -1.79844,1.97245 -3.62585,3.59681 -5.48223,4.87309 -0.11606,0.058 -0.40612,0.11603 -0.87019,0.17404 -0.46414,0.058 -0.7542,0.087 -0.8702,0.087 -1.27631,0 -2.52359,-0.58012 -3.74183,-1.74039 -1.16029,-1.16025 -2.26253,-2.52355 -3.30674,-4.08991 -0.98625,-1.56634 -1.85644,-3.1617 -2.61058,-4.78607 -0.69618,-1.62435 -1.2473,-2.90063 -1.65337,-3.82886 -0.11605,2e-5 -0.29009,2e-5 -0.52212,0 -0.17406,-0.058 -0.31909,-0.087 -0.4351,-0.087 -1.10226,2e-5 -1.97246,0.40611 -2.61058,1.21827 -0.58015,0.8122 -1.07326,1.82743 -1.47933,3.04568 -0.40611,1.16028 -0.8122,2.43656 -1.21827,3.82886 -0.3481,1.39232 -0.92823,2.69761 -1.74039,3.91588 -0.75418,1.16026 -1.7404,2.14648 -2.95866,2.95866 -1.21828,0.81218 -2.84265,1.21827 -4.87309,1.21827 -1.04424,0 -1.85642,-0.17404 -2.43655,-0.52212 -0.52212,-0.40608 -0.60914,-1.45032 -0.26106,-3.1327 l 6.43944,-31.93614 c 0.11602,-0.81214 0.63814,-1.74034 1.56635,-2.78462 0.9282,-1.04419 1.97243,-2.0014 3.1327,-2.87164 1.21826,-0.92816 2.43653,-1.71134 3.65482,-2.34952 1.27627,-0.6381 2.3205,-0.95717 3.1327,-0.95722 2.14646,5e-5 3.82883,0.6672 5.04713,2.00145 1.21824,1.33434 2.17546,2.98771 2.87164,4.96011 0.69613,1.97248 1.24725,4.11895 1.65337,6.43944 0.46407,2.32055 0.95718,4.46702 1.47933,6.43944 0.5801,1.97246 1.27625,3.62583 2.08847,4.9601 0.87016,1.33432 2.11743,2.00147 3.74183,2.00145 0.11599,2e-5 0.40606,2e-5 0.8702,0 0.46406,-0.058 0.78313,-0.087 0.95721,-0.087 0.40605,-0.52209 1.0732,-1.4503 2.00145,-2.78462 0.92816,-1.33427 1.91438,-2.75559 2.95866,-4.26395 1.04419,-1.56632 2.03041,-3.01665 2.95866,-4.35098 0.98617,-1.39227 1.65332,-2.34949 2.00145,-2.87164 0.46405,-0.75413 1.01518,-1.82737 1.65337,-3.21972 0.6961,-1.45028 1.47928,-2.8716 2.34952,-4.26395 0.87014,-1.39227 1.82736,-2.58153 2.87164,-3.5678 1.04418,-1.04418 2.20444,-1.5663 3.48078,-1.56635 1.56629,5e-5 2.84258,0.52217 3.82886,1.56635 1.04417,1.04428 1.88535,2.40759 2.52356,4.08992 0.69609,1.68241 1.21821,3.56783 1.56635,5.65626 0.34801,2.03049 0.60907,4.03193 0.78318,6.00434 0.23198,1.97247 0.40602,3.82889 0.52211,5.56925 0.11596,1.6824 0.31901,3.01669 0.60914,4.00289 0.29,1.27631 0.92814,2.49458 1.91443,3.65482 1.04416,1.10226 2.05939,2.23351 3.04568,3.39376 0.98614,1.10226 1.79832,2.23351 2.43654,3.39376 0.69608,1.16026 0.89913,2.37854 0.60914,3.65481 -0.17412,1.04424 -0.5512,1.94344 -1.13125,2.69761 -0.5222,0.69615 -1.16034,1.27628 -1.91443,1.74038 -0.75424,0.4061 -1.59543,0.69616 -2.52357,0.8702 -0.87026,0.17404 -1.74045,0.26106 -2.61058,0.26106 -2.08853,0 -3.68389,-0.49311 -4.78607,-1.47933 -1.04429,-0.98622 -1.79846,-2.2625 -2.2625,-3.82886 -0.46417,-1.56634 -0.75423,-3.30673 -0.8702,-5.22117 -0.11609,-1.97242 -0.31913,-3.88685 -0.60913,-5.74328 -0.29013,-1.85639 -0.75423,-3.56778 -1.39232,-5.13415 -0.58018,-1.56632 -1.59541,-2.78459 -3.04568,-3.65481"
         style="font-size:87.01944733px;font-family:Fatboy Slim BLTC BRK;-inkscape-font-specification:Fatboy Slim BLTC BRK Italic"
         id="path4837" />
      <path
         d="m 537.72823,126.11552 c 0.17403,-0.98618 0.72515,-1.85637 1.65337,-2.61058 0.92819,-0.81214 2.00143,-1.47929 3.21972,-2.00145 1.27627,-0.58008 2.63957,-1.04418 4.08991,-1.39231 1.50832,-0.40604 2.92964,-0.72511 4.26395,-0.95721 1.39229,-0.29002 2.63957,-0.49306 3.74184,-0.60914 1.10222,-0.17399 1.9144,-0.29001 2.43655,-0.34808 0.75413,-0.11597 1.88539,-0.26101 3.39375,-0.43509 1.50831,-0.17399 3.21969,-0.37704 5.13415,-0.60914 1.91439,-0.232 3.91584,-0.46405 6.00434,-0.69616 2.08842,-0.29001 4.08987,-0.55107 6.00434,-0.78317 1.97239,-0.232 3.71278,-0.43505 5.22117,-0.60914 1.50828,-0.17398 2.61053,-0.29001 3.30674,-0.34808 0.92815,0.29012 1.39225,0.75423 1.39231,1.39232 0.058,0.63819 -6e-5,1.33434 -0.17404,2.08846 -0.17409,0.81223 -0.40615,1.53739 -0.69615,2.17549 -0.23211,0.63819 -0.87025,1.10229 -1.91443,1.39231 -0.6382,0.11607 -1.65342,0.31912 -3.04568,0.60914 -1.33435,0.23209 -2.87169,0.52216 -4.61203,0.87019 -1.68242,0.34812 -3.45182,0.72521 -5.30819,1.13125 -1.85645,0.34812 -3.65485,0.72521 -5.3952,1.13126 -1.68242,0.34812 -3.21976,0.66719 -4.61203,0.95721 -1.33433,0.29011 -2.29155,0.49315 -2.87165,0.60914 -0.52214,0.11606 -1.18929,0.37712 -2.00144,0.78317 -0.81221,0.40613 -1.6534,0.87024 -2.52357,1.39231 -0.87022,0.52216 -1.65339,1.07328 -2.34952,1.65337 -0.69618,0.58017 -1.16028,1.10228 -1.39231,1.56635 -0.11605,0.2901 -0.17406,0.63818 -0.17404,1.04424 0.058,0.34811 0.14501,0.72519 0.26106,1.13125 0.116,0.34811 0.26103,0.66718 0.43509,0.95721 0.17402,0.23209 0.37706,0.34811 0.60914,0.34808 l 28.36834,0 c 0.11597,3e-5 0.31902,0.0871 0.60913,0.26106 0.34803,0.11606 0.69611,0.29009 1.04424,0.52212 0.34802,0.17406 0.66709,0.37711 0.95721,0.60913 0.34803,0.17407 0.52206,0.2901 0.52212,0.34808 0.058,0.058 0.087,0.20307 0.087,0.4351 -6e-5,0.17406 -0.0291,0.3191 -0.087,0.43509 -6e-5,0.11606 -0.0581,0.2901 -0.17404,0.52212 -0.0581,0.23208 -0.0871,0.37711 -0.087,0.4351 -0.11608,0.17406 -0.46416,0.49314 -1.04423,0.95721 -0.52217,0.40612 -0.89926,0.66718 -1.13126,0.78318 -0.63819,0.058 -1.62441,0.17406 -2.95866,0.34807 -1.33434,0.17407 -2.84268,0.37711 -4.52501,0.60914 -1.68242,0.23208 -3.45181,0.49314 -5.30818,0.78318 -1.85646,0.23207 -3.62585,0.46412 -5.30819,0.69615 -1.6244,0.23208 -3.13273,0.46413 -4.52501,0.69616 -1.33433,0.17406 -2.29154,0.31909 -2.87164,0.43509 -1.45035,0.29009 -2.84266,0.92823 -4.17694,1.91443 -1.33432,0.92823 -2.11749,2.08849 -2.34952,3.48078 -0.40611,2.03047 -2e-5,3.5388 1.21827,4.52501 1.27626,0.98623 2.87162,1.68239 4.78607,2.08847 1.9144,0.4061 3.88684,0.60914 5.91732,0.60913 2.08843,1e-5 3.7418,1e-5 4.96011,0 1.68234,1e-5 3.3067,-0.20303 4.87309,-0.60913 1.62432,-0.40608 3.19067,-0.84118 4.69905,-1.30529 1.50829,-0.4641 3.04563,-0.89919 4.61203,-1.3053 1.5663,-0.40607 3.16165,-0.60912 4.78607,-0.60913 0.75411,10e-6 1.5953,0.058 2.52356,0.17404 0.92815,0.058 1.42126,0.63815 1.47933,1.74039 -2.03051,2.26251 -4.29301,4.11892 -6.78751,5.56924 -2.4366,1.39232 -4.98917,2.49456 -7.65771,3.30674 -2.66864,0.81218 -5.39525,1.36331 -8.17983,1.65337 -2.72665,0.23205 -5.36623,0.26106 -7.91877,0.087 -4.69908,-0.23205 -8.49892,-0.78317 -11.39955,-1.65337 -2.90066,-0.87019 -5.16317,-2.03045 -6.78752,-3.48078 -1.62437,-1.50833 -2.72661,-3.30673 -3.30673,-5.3952 -0.52213,-2.14647 -0.78319,-4.61202 -0.78318,-7.39666 0.058,-2.84261 0.29006,-6.00431 0.69616,-9.48512 0.40608,-3.53876 0.75416,-7.42562 1.04423,-11.6606 -10e-6,-0.058 -10e-6,-0.20301 0,-0.4351 0.058,-0.23201 0.087,-0.40605 0.087,-0.52212"
         style="font-size:87.01944733px;font-family:Fatboy Slim BLTC BRK;-inkscape-font-specification:Fatboy Slim BLTC BRK Italic"
         id="path4839" />
      <path
         d="m 426.99054,255.42642 c 0.4641,-2.49453 1.85641,-4.90207 4.17693,-7.22261 2.32051,-2.3785 4.9601,-4.46697 7.91877,-6.2654 3.01666,-1.85638 6.12035,-3.33571 9.31108,-4.43799 3.19069,-1.16022 5.91729,-1.74035 8.17983,-1.74039 2.61055,4e-5 5.42417,0.40613 8.44089,1.21827 3.07464,0.81222 5.85926,2.03049 8.35386,3.65482 2.49451,1.56638 4.43794,3.59683 5.83031,6.09136 1.39225,2.43657 1.76933,5.30821 1.13125,8.61492 -0.34814,1.6824 -1.1023,3.27775 -2.26251,4.78607 -1.1023,1.45034 -2.4656,2.78464 -4.08991,4.0029 -1.62441,1.16027 -3.42281,2.2045 -5.3952,3.1327 -1.97249,0.92821 -3.94493,1.71139 -5.91733,2.34952 -1.97248,0.58014 -3.8869,1.04424 -5.74328,1.39231 -1.79844,0.29007 -3.36478,0.4351 -4.69905,0.4351 -1.50837,0 -3.27776,-0.087 -5.30819,-0.26106 -1.97246,-0.17403 -3.97391,-0.4641 -6.00434,-0.87019 -1.97246,-0.4641 -3.91589,-1.07324 -5.8303,-1.82741 -1.85643,-0.75416 -3.45178,-1.71137 -4.78607,-2.87164 -1.33431,-1.21826 -2.34953,-2.63958 -3.04568,-4.26396 -0.63815,-1.68236 -0.72517,-3.65479 -0.26106,-5.91732 m 9.8332,2.87164 c -0.29008,1.56637 0.087,2.78464 1.13125,3.65482 1.10223,0.8122 2.49454,1.39232 4.17693,1.74039 1.68236,0.34809 3.42274,0.55113 5.22117,0.60913 1.79837,0.058 3.2777,0.087 4.43799,0.087 1.33427,2e-5 3.01664,-0.029 5.04713,-0.087 2.03042,-0.11601 4.03186,-0.43508 6.00434,-0.95721 1.9724,-0.5221 3.74179,-1.33428 5.30819,-2.43654 1.62431,-1.10223 2.63954,-2.63958 3.04568,-4.61203 0.11598,-0.5221 0.087,-1.21826 -0.087,-2.08847 -0.17409,-0.87017 -0.46415,-1.71136 -0.8702,-2.52357 -0.34812,-0.87016 -0.78322,-1.62433 -1.30529,-2.2625 -0.46415,-0.63812 -0.95726,-1.0152 -1.47933,-1.13125 -0.17408,2e-5 -0.55117,0.087 -1.13125,0.26105 -0.52216,0.17407 -1.10229,0.37712 -1.74039,0.60914 -0.58017,0.17407 -1.1603,0.37711 -1.74039,0.60914 -0.58017,0.17406 -0.95725,0.26108 -1.13125,0.26106 -4e-5,0.058 -0.14507,0.087 -0.4351,0.087 -0.23209,3e-5 -0.40613,3e-5 -0.52212,0 -0.11606,3e-5 -0.2901,3e-5 -0.52211,0 -0.17408,3e-5 -0.2611,-0.029 -0.26106,-0.087 -0.11606,-0.116 -0.49315,-0.43507 -1.13125,-0.95722 -0.58017,-0.52209 -1.21831,-1.07321 -1.91443,-1.65337 -0.69619,-0.63811 -1.33433,-1.21824 -1.91443,-1.74039 -0.58016,-0.52208 -0.92824,-0.81215 -1.04423,-0.87019 -0.058,-0.058 -0.17407,-0.087 -0.34808,-0.087 -0.17407,-0.058 -0.3191,-0.087 -0.4351,-0.087 -1.6824,3e-5 -3.42279,0.40612 -5.22116,1.21827 -1.79843,0.81221 -3.4808,1.88545 -5.04713,3.21972 -1.50836,1.27631 -2.81365,2.72664 -3.91588,4.35097 -1.10226,1.62439 -1.82742,3.24875 -2.17548,4.87309"
         style="font-size:87.01944733px;font-family:Fatboy Slim BLTC BRK;-inkscape-font-specification:Fatboy Slim BLTC BRK Italic"
         id="path4841" />
      <path
         d="m 482.92773,246.46342 c 0.17403,-0.75414 0.34807,-1.45029 0.52211,-2.08847 0.23205,-0.69612 0.49311,-1.27625 0.78318,-1.74039 0.34807,-0.52208 0.81217,-0.89916 1.39231,-1.13125 0.58012,-0.29003 1.30528,-0.43506 2.17549,-0.4351 1.3923,4e-5 2.52355,0.40613 3.39375,1.21827 0.87018,0.81222 1.62435,1.82745 2.26251,3.04569 0.69614,1.16028 1.33428,2.43657 1.91443,3.82885 0.58011,1.39234 1.21825,2.69763 1.91443,3.91588 0.75414,1.16028 1.65334,2.1465 2.6976,2.95866 1.10222,0.8122 2.46552,1.21829 4.08991,1.21827 0.116,2e-5 0.40607,2e-5 0.8702,0 0.52209,-0.058 0.84116,-0.087 0.95721,-0.087 1.27626,-3.59678 2.90062,-7.2806 4.87309,-11.05147 1.97241,-3.82882 4.32193,-7.28059 7.04858,-10.35531 2.72656,-3.13266 5.83025,-5.68523 9.31108,-7.65772 3.48072,-1.97239 7.4256,-2.9586 11.83464,-2.95866 2.37847,6e-5 3.33568,1.18932 2.87164,3.5678 -0.1741,0.92826 -0.75423,1.79845 -1.74039,2.61058 -0.92827,0.81223 -2.08852,1.68242 -3.48077,2.61059 -1.33436,0.87023 -2.8427,1.85645 -4.52501,2.95866 -1.62442,1.04427 -3.24878,2.26254 -4.87309,3.65482 -1.62442,1.39234 -3.13275,3.0167 -4.52502,4.87308 -1.39235,1.85645 -2.4946,4.00293 -3.30673,6.43944 -0.29011,0.87022 -0.63819,2.05949 -1.04424,3.5678 -0.34812,1.45035 -0.78321,3.0457 -1.30529,4.78607 -0.46414,1.7404 -1.04427,3.48079 -1.74039,5.22117 -0.69619,1.7404 -1.53738,3.33575 -2.52356,4.78607 -0.98626,1.45033 -2.14652,2.63959 -3.48078,3.56779 -1.27632,0.8702 -2.78465,1.3053 -4.52501,1.3053 -1.74042,0 -3.53882,-0.4351 -5.39521,-1.3053 -1.85643,-0.9282 -3.65483,-2.14647 -5.3952,-3.65481 -1.74041,-1.50833 -3.36477,-3.21971 -4.87309,-5.13415 -1.50835,-1.97243 -2.78463,-4.00288 -3.82886,-6.09136 -1.04424,-2.14646 -1.79841,-4.29294 -2.2625,-6.43944 -0.4061,-2.14645 -0.43511,-4.1479 -0.087,-6.00434"
         style="font-size:87.01944733px;font-family:Fatboy Slim BLTC BRK;-inkscape-font-specification:Fatboy Slim BLTC BRK Italic"
         id="path4843" />
      <path
         d="m 534.83892,234.88983 c 0.17403,-0.98618 0.72515,-1.85637 1.65337,-2.61058 0.92819,-0.81214 2.00143,-1.47929 3.21971,-2.00145 1.27627,-0.58008 2.63958,-1.04419 4.08992,-1.39231 1.50832,-0.40604 2.92963,-0.72511 4.26395,-0.95721 1.39229,-0.29002 2.63957,-0.49307 3.74184,-0.60914 1.10222,-0.17399 1.9144,-0.29002 2.43654,-0.34808 0.75414,-0.11597 1.88539,-0.26101 3.39376,-0.4351 1.5083,-0.17398 3.21969,-0.37703 5.13415,-0.60913 1.91439,-0.232 3.91583,-0.46405 6.00434,-0.69616 2.08842,-0.29001 4.08987,-0.55107 6.00434,-0.78317 1.97239,-0.232 3.71278,-0.43505 5.22117,-0.60914 1.50828,-0.17398 2.61053,-0.29001 3.30674,-0.34808 0.92815,0.29012 1.39225,0.75422 1.39231,1.39232 0.058,0.63819 -6e-5,1.33434 -0.17404,2.08846 -0.1741,0.81223 -0.40615,1.53739 -0.69616,2.17549 -0.23211,0.63819 -0.87025,1.10229 -1.91442,1.39231 -0.6382,0.11607 -1.65343,0.31912 -3.04568,0.60914 -1.33435,0.23209 -2.8717,0.52216 -4.61203,0.87019 -1.68243,0.34812 -3.45182,0.72521 -5.30819,1.13125 -1.85646,0.34812 -3.65486,0.72521 -5.39521,1.13126 -1.68241,0.34812 -3.21975,0.66719 -4.61203,0.95721 -1.33433,0.29011 -2.29154,0.49315 -2.87164,0.60914 -0.52215,0.11606 -1.18929,0.37712 -2.00145,0.78317 -0.81221,0.40613 -1.65339,0.87023 -2.52356,1.39231 -0.87022,0.52216 -1.65339,1.07328 -2.34953,1.65337 -0.69617,0.58017 -1.16028,1.10228 -1.39231,1.56635 -0.11604,0.2901 -0.17406,0.63818 -0.17404,1.04423 0.058,0.34812 0.14501,0.7252 0.26106,1.13126 0.11601,0.34811 0.26104,0.66718 0.4351,0.95721 0.17402,0.23209 0.37706,0.34811 0.60914,0.34808 l 28.36834,0 c 0.11597,3e-5 0.31902,0.0871 0.60913,0.26106 0.34803,0.11605 0.6961,0.29009 1.04424,0.52211 0.34802,0.17407 0.66709,0.37712 0.95721,0.60914 0.34802,0.17407 0.52206,0.2901 0.52212,0.34808 0.058,0.058 0.087,0.20307 0.087,0.4351 -6e-5,0.17406 -0.0291,0.3191 -0.087,0.43509 -6e-5,0.11606 -0.0581,0.2901 -0.17404,0.52212 -0.0581,0.23208 -0.0871,0.37711 -0.087,0.4351 -0.11608,0.17406 -0.46416,0.49313 -1.04424,0.95721 -0.52217,0.40612 -0.89925,0.66718 -1.13125,0.78318 -0.63819,0.058 -1.62441,0.17406 -2.95866,0.34807 -1.33435,0.17407 -2.84268,0.37711 -4.52501,0.60914 -1.68242,0.23208 -3.45181,0.49313 -5.30819,0.78317 -1.85645,0.23208 -3.62584,0.46413 -5.30818,0.69616 -1.6244,0.23208 -3.13273,0.46413 -4.52501,0.69616 -1.33433,0.17406 -2.29154,0.31909 -2.87165,0.43509 -1.45035,0.29009 -2.84266,0.92823 -4.17693,1.91443 -1.33432,0.92823 -2.11749,2.08849 -2.34952,3.48078 -0.40612,2.03047 -3e-5,3.5388 1.21827,4.52501 1.27626,0.98623 2.87161,1.68239 4.78607,2.08847 1.9144,0.4061 3.88684,0.60914 5.91732,0.60913 2.08843,10e-6 3.7418,10e-6 4.96011,0 1.68233,10e-6 3.3067,-0.20303 4.87309,-0.60913 1.62432,-0.40608 3.19066,-0.84118 4.69905,-1.3053 1.50829,-0.46409 3.04563,-0.89918 4.61203,-1.30529 1.56629,-0.40607 3.16165,-0.60912 4.78607,-0.60913 0.75411,10e-6 1.5953,0.058 2.52356,0.17404 0.92815,0.058 1.42126,0.63815 1.47933,1.74038 -2.03051,2.26252 -4.29301,4.11893 -6.78752,5.56925 -2.43659,1.39232 -4.98916,2.49456 -7.65771,3.30674 -2.66864,0.81218 -5.39524,1.36331 -8.17982,1.65337 -2.72665,0.23205 -5.36624,0.26106 -7.91877,0.087 -4.69908,-0.23205 -8.49892,-0.78318 -11.39955,-1.65337 -2.90067,-0.87019 -5.16317,-2.03045 -6.78752,-3.48078 -1.62437,-1.50833 -2.72662,-3.30673 -3.30674,-5.39521 -0.52212,-2.14646 -0.78318,-4.61201 -0.78317,-7.39665 0.058,-2.84261 0.29005,-6.00431 0.69615,-9.48512 0.40609,-3.53876 0.75416,-7.42562 1.04424,-11.6606 -10e-6,-0.058 -10e-6,-0.20301 0,-0.4351 0.058,-0.23201 0.087,-0.40605 0.087,-0.52212"
         style="font-size:87.01944733px;font-family:Fatboy Slim BLTC BRK;-inkscape-font-specification:Fatboy Slim BLTC BRK Italic"
         id="path4845" />
      <path
         d="m 584.60994,258.99422 c 0.58013,-2.90063 1.3633,-5.97531 2.34953,-9.22406 1.04423,-3.2487 2.32051,-6.43941 3.82886,-9.57214 1.50832,-3.19068 3.24871,-6.23635 5.22116,-9.13704 2.03044,-2.9006 4.29294,-5.42417 6.78752,-7.5707 2.55254,-2.20443 5.39518,-3.94482 8.5279,-5.22116 3.13267,-1.33424 6.55543,-2.00139 10.2683,-2.00145 2.20445,6e-5 4.67,0.34814 7.39665,1.04423 2.72656,0.6382 5.22112,1.65343 7.48368,3.04568 2.32046,1.39237 4.14786,3.16176 5.48222,5.30819 1.33424,2.08852 1.71132,4.58307 1.13125,7.48367 -0.46416,2.37858 -1.39237,4.67009 -2.78462,6.87454 -1.39237,2.20453 -3.01673,4.322 -4.87309,6.35242 -1.79845,1.97247 -3.71288,3.88689 -5.74328,5.74328 -2.0305,1.79843 -3.88692,3.4808 -5.56925,5.04713 -0.11607,0.11605 -0.17408,0.29008 -0.17404,0.52212 -0.058,0.17405 -0.0871,0.29008 -0.087,0.34807 -0.0581,0.11605 -0.0871,0.29009 -0.087,0.52212 -0.0581,0.23207 -0.0581,0.3481 0,0.34808 0.058,0.23207 0.26101,0.58015 0.60913,1.04423 0.34804,0.40611 0.60909,0.66717 0.78318,0.78318 1.74034,-0.11601 3.97384,-0.26104 6.70049,-0.4351 2.72656,-0.17402 5.56919,-0.23204 8.52791,-0.17404 3.01661,2e-5 5.97527,0.17406 8.87598,0.52212 2.90058,0.29008 5.39514,0.89921 7.48368,1.82741 0.11595,0.11604 0.348,0.4061 0.69615,0.87019 0.40602,0.4061 0.60906,0.66716 0.60914,0.78318 0.0579,0.11603 0.0869,0.29007 0.087,0.52211 -8e-5,0.23207 -0.0291,0.4061 -0.087,0.52212 -0.11611,0.58014 -0.43518,1.13126 -0.95722,1.65337 -0.46418,0.46411 -1.0153,0.8702 -1.65337,1.21827 -0.63821,0.34809 -1.30536,0.66716 -2.00144,0.95721 -0.69623,0.23206 -1.27636,0.43511 -1.74039,0.60914 -3.30681,0.29007 -6.35249,0.55113 -9.13704,0.78318 -2.78469,0.23205 -5.51129,0.4351 -8.17983,0.60913 -2.66865,0.11603 -5.33724,0.23206 -8.00579,0.34808 -2.61063,0.058 -5.36624,0.087 -8.26685,0.087 -1.16029,0 -2.5526,-0.23205 -4.17693,-0.69616 -1.6244,-0.46409 -3.24876,-0.9572 -4.87309,-1.47933 -1.62439,-0.52211 -3.19074,-0.9572 -4.69905,-1.30529 -1.50836,-0.34807 -2.75564,-0.40608 -3.74184,-0.17404 -0.23207,0.058 -0.75419,0.34809 -1.56635,0.8702 -0.75418,0.52212 -1.59537,1.10225 -2.52356,1.74039 -0.92822,0.63814 -1.79842,1.24728 -2.61058,1.8274 -0.8122,0.52213 -1.30531,0.8412 -1.47934,0.95722 -0.23206,0.11603 -0.58014,0.29007 -1.04423,0.52212 -0.4061,0.17404 -0.81219,0.37708 -1.21827,0.60913 -0.34809,0.17404 -0.69617,0.31907 -1.04423,0.4351 -0.29008,0.11603 -0.46412,0.17404 -0.52212,0.17404 -1.27629,-0.34808 -2.23351,-1.16026 -2.87164,-2.43655 -0.63815,-1.33429 -1.07325,-2.81362 -1.30529,-4.43799 -0.23206,-1.68236 -0.31908,-3.33573 -0.26106,-4.96011 0.058,-1.68236 0.20304,-3.04566 0.43509,-4.08991 m 17.14284,-15.14139 c -0.23208,1.39235 -0.49314,2.72664 -0.78318,4.0029 -0.23207,1.2183 -0.43512,2.43657 -0.60914,3.65482 -0.11604,1.21829 -0.17405,2.43656 -0.17403,3.65481 -2e-5,1.2183 0.17401,2.46557 0.52211,3.74184 0.058,0.058 0.17402,0.087 0.34808,0.087 0.23203,2e-5 0.40607,2e-5 0.52212,0 2.3785,2e-5 5.19213,-0.78316 8.44088,-2.34953 3.30671,-1.56633 6.52643,-3.50976 9.65916,-5.8303 3.13266,-2.32049 5.85927,-4.84405 8.17983,-7.57069 2.37848,-2.72657 3.7998,-5.27914 4.26395,-7.65771 0.40604,-2.03041 0.232,-3.62577 -0.52211,-4.78607 -0.75422,-1.16021 -1.79846,-2.03041 -3.1327,-2.61059 -1.33435,-0.63809 -2.9007,-1.01517 -4.69905,-1.13125 -1.74043,-0.17399 -3.3938,-0.26101 -4.96011,-0.26106 -0.34812,5e-5 -0.78322,0.0291 -1.30529,0.087 -0.52216,5e-5 -1.04427,5e-5 -1.56635,0 -0.46414,5e-5 -1.07328,0.0291 -1.82741,0.087 -0.52215,0.2321 -1.30533,0.75422 -2.34953,1.56635 -1.04426,0.75422 -2.1175,1.59541 -3.21972,2.52357 -1.10227,0.92825 -2.1465,1.85645 -3.1327,2.78462 -0.98624,0.87023 -1.62438,1.53738 -1.91443,2.00145 -0.058,0.2901 -0.17406,0.81222 -0.34807,1.56635 -0.11605,0.7542 -0.29009,1.56638 -0.52212,2.43654 -0.17406,0.87023 -0.3481,1.68241 -0.52212,2.43654 -0.17406,0.75421 -0.29008,1.27632 -0.34807,1.56635"
         style="font-size:87.01944733px;font-family:Fatboy Slim BLTC BRK;-inkscape-font-specification:Fatboy Slim BLTC BRK Italic"
         id="path4847" />
    </g>
  </g>
</svg>
